# xmcd
#
# Track frame offsets:
#	150
#	23950
#	48615
#	65818
#	91178
#	114242
#	134465
#	160340
#	186344
#	211071
#	237171
#
# Disc length: 3371 seconds
#
# Revision: 2
# Processed by: cddbd v1.5.2PL0 Copyright (c) Steve Scherf et al.
# Submitted via: EZCDAudioConverter 8.0.2.1
#
DISCID=980d290b
DTITLE=Quang Lê, Tâm Đoan - st. Trần Thiện Thanh. Tâm Sự Người Lính Trẻ
DYEAR=2007
DGENRE=Pop
TTITLE0=Quang Lê - Biển mặn
TTITLE1=Tâm Đoan - Từ đó em buồn
TTITLE2=Quang Lê - Yêu người như thế đó
TTITLE3=Tâm Đoan - Tạ từ trong đêm
TTITLE4=Quang Lê, Tâm Đoan - Không bao giờ ngăn cách
TTITLE5=Quang Lê - Chuyện hẹn hò
TTITLE6=Tâm Đoan - Tình thiên thu
TTITLE7=Quang Lê - Tâm sự người lính trẻ
TTITLE8=Quang Lê, Tâm Đoan - Anh về với em
TTITLE9=Tâm Đoan - Chuyện một người đi
TTITLE10=Tâm Đoan - Tình có như không
EXTD=
EXTT0=
EXTT1=
EXTT2=
EXTT3=
EXTT4=
EXTT5=
EXTT6=
EXTT7=
EXTT8=
EXTT9=
EXTT10=
PLAYORDER=
